name Walk3.mot
datacolumns 19
datarows 22
range 1.31100000 1.33200000
endheader

                time	   L_ground_force_vx	   L_ground_force_vy	   L_ground_force_vz	   L_ground_force_px	   L_ground_force_py	   L_ground_force_pz	   R_ground_force_vx	   R_ground_force_vy	   R_ground_force_vz	   R_ground_force_px	   R_ground_force_py	   R_ground_force_pz	   L_ground_torque_x	   L_ground_torque_y	   L_ground_torque_z	   R_ground_torque_x	   R_ground_torque_y	   R_ground_torque_z	
          1.31100000	         -2.04030542	         62.77160786	         -7.07773237	          0.00052519	          0.00000000	          0.00160351	         -0.00000015	          0.00000132	          0.00000008	          0.00000000	          0.00000000	          0.00000000	          0.00000000	          0.15856656	          0.00000000	          0.00000000	         -0.00000002	          0.00000000	
          1.31200000	         -2.91657585	         70.63093752	         -7.73551847	         -0.01500348	          0.00000000	          0.00019291	         -0.00000015	          0.00000137	          0.00000009	          0.00000000	          0.00000000	          0.00000000	          0.00000000	          0.17684495	          0.00000000	          0.00000000	         -0.00000002	          0.00000000	
          1.31300000	         -3.81756271	         78.64927853	         -8.40563319	         -0.03046945	          0.00000000	         -0.00121147	         -0.00000016	          0.00000142	          0.00000009	          0.00000000	          0.00000000	          0.00000000	          0.00000000	          0.19541139	          0.00000000	          0.00000000	         -0.00000003	          0.00000000	
          1.31400000	         -4.74256298	         86.81315987	         -9.08670412	         -0.04581989	          0.00000000	         -0.00260497	         -0.00000016	          0.00000146	          0.00000009	          0.00000000	          0.00000000	          0.00000000	          0.00000000	          0.21422582	          0.00000000	          0.00000000	         -0.00000003	          0.00000000	
          1.31500000	         -5.69085367	         95.10803952	         -9.77724897	         -0.06100535	          0.00000000	         -0.00398321	         -0.00000016	          0.00000151	          0.00000010	          0.00000000	          0.00000000	          0.00000000	          0.00000000	          0.23324607	          0.00000000	          0.00000000	         -0.00000003	          0.00000000	
          1.31600000	         -6.66170954	        103.51833459	        -10.47567973	         -0.07598086	          0.00000000	         -0.00534225	         -0.00000016	          0.00000155	          0.00000010	          0.00000000	          0.00000000	          0.00000000	          0.00000000	          0.25242827	          0.00000000	          0.00000000	         -0.00000003	          0.00000000	
          1.31700000	         -7.65442231	        112.02750180	        -11.18030435	         -0.09070606	          0.00000000	         -0.00667859	         -0.00000016	          0.00000159	          0.00000010	          0.00000000	          0.00000000	          0.00000000	          0.00000000	          0.27172688	          0.00000000	          0.00000000	         -0.00000003	          0.00000000	
          1.31800000	         -8.66831977	        120.61817965	        -11.88932517	         -0.10514492	          0.00000000	         -0.00798914	         -0.00000016	          0.00000163	          0.00000010	          0.00000000	          0.00000000	          0.00000000	          0.00000000	          0.29109482	          0.00000000	          0.00000000	         -0.00000003	          0.00000000	
          1.31900000	         -9.70278290	        129.27239914	        -12.60083384	         -0.11926553	          0.00000000	         -0.00927126	         -0.00000016	          0.00000166	          0.00000011	          0.00000000	          0.00000000	          0.00000000	          0.00000000	          0.31048341	          0.00000000	          0.00000000	         -0.00000003	          0.00000000	
          1.32000000	        -10.75725747	        137.97185696	        -13.31280317	         -0.13303988	          0.00000000	         -0.01052269	         -0.00000016	          0.00000169	          0.00000011	          0.00000000	          0.00000000	          0.00000000	          0.00000000	          0.32984245	          0.00000000	          0.00000000	         -0.00000003	          0.00000000	
          1.32100000	        -11.83125673	        146.69823208	        -14.02307772	         -0.14644359	          0.00000000	         -0.01174157	         -0.00000015	          0.00000172	          0.00000011	          0.00000000	          0.00000000	          0.00000000	          0.00000000	          0.34912037	          0.00000000	          0.00000000	         -0.00000003	          0.00000000	
          1.32200000	        -12.92435322	        155.43351521	        -14.72936589	         -0.15945576	          0.00000000	         -0.01292636	         -0.00000015	          0.00000174	          0.00000011	          0.00000000	          0.00000000	          0.00000000	          0.00000000	          0.36826446	          0.00000000	          0.00000000	         -0.00000003	          0.00000000	
          1.32300000	        -14.03615972	        164.16031654	        -15.42923699	         -0.17205868	          0.00000000	         -0.01407586	         -0.00000015	          0.00000176	          0.00000011	          0.00000000	          0.00000000	          0.00000000	          0.00000000	          0.38722117	          0.00000000	          0.00000000	         -0.00000003	          0.00000000	
          1.32400000	        -15.16630198	        172.86212116	        -16.12012568	         -0.18423770	          0.00000000	         -0.01518915	         -0.00000014	          0.00000177	          0.00000012	          0.00000000	          0.00000000	          0.00000000	          0.00000000	          0.40593629	          0.00000000	          0.00000000	         -0.00000003	          0.00000000	
          1.32500000	        -16.31438702	        181.52347301	        -16.79934548	         -0.19598096	          0.00000000	         -0.01626559	         -0.00000013	          0.00000177	          0.00000012	          0.00000000	          0.00000000	          0.00000000	          0.00000000	          0.42435507	          0.00000000	          0.00000000	         -0.00000003	          0.00000000	
          1.32600000	        -17.47997106	        190.13008207	        -17.46411093	         -0.20727928	          0.00000000	         -0.01730477	         -0.00000012	          0.00000177	          0.00000012	          0.00000000	          0.00000000	          0.00000000	          0.00000000	          0.44242220	          0.00000000	          0.00000000	         -0.00000003	          0.00000000	
          1.32700000	        -18.66253025	        198.66886188	        -18.11156672	         -0.21812588	          0.00000000	         -0.01830652	         -0.00000011	          0.00000176	          0.00000012	          0.00000000	          0.00000000	          0.00000000	          0.00000000	          0.46008174	          0.00000000	          0.00000000	         -0.00000003	          0.00000000	
          1.32800000	        -19.86143592	        207.12791269	        -18.73882091	         -0.22851627	          0.00000000	         -0.01927085	         -0.00000010	          0.00000174	          0.00000012	          0.00000000	          0.00000000	          0.00000000	          0.00000000	          0.47727721	          0.00000000	          0.00000000	         -0.00000003	          0.00000000	
          1.32900000	        -21.07593514	        215.49646955	        -19.34297937	         -0.23844807	          0.00000000	         -0.02019798	         -0.00000009	          0.00000172	          0.00000011	          0.00000000	          0.00000000	          0.00000000	          0.00000000	          0.49395161	          0.00000000	          0.00000000	         -0.00000003	          0.00000000	
          1.33000000	        -22.30513661	        223.76483394	        -19.92117900	         -0.24792078	          0.00000000	         -0.02108825	         -0.00000008	          0.00000168	          0.00000011	          0.00000000	          0.00000000	          0.00000000	          0.00000000	          0.51004765	          0.00000000	          0.00000000	         -0.00000003	          0.00000000	
          1.33100000	        -23.54800131	        231.92430402	        -20.47061827	         -0.25693571	          0.00000000	         -0.02194217	         -0.00000006	          0.00000163	          0.00000011	          0.00000000	          0.00000000	          0.00000000	          0.00000000	          0.52550786	          0.00000000	          0.00000000	         -0.00000003	          0.00000000	
          1.33200000	        -24.80333764	        239.96711293	        -20.98858436	         -0.26549574	          0.00000000	         -0.02276037	         -0.00000005	          0.00000157	          0.00000011	          0.00000000	          0.00000000	         -0.00000000	          0.00000000	          0.54027471	          0.00000000	          0.00000000	         -0.00000003	          0.00000000	
